<svg version="1.1" id="Capa_1" xmlns="http://www.w3.org/2000/svg" xmlns:xlink="http://www.w3.org/1999/xlink" x="0px" y="0px" viewBox="0 0 1024 1024" style="enable-background:new 0 0 1024 1024;" xml:space="preserve">
<style type="text/css">
	.st0{fill:#F77490;}
	.st1{fill:#FDF17F;}
	.st2{fill:#50E6CC;}
	.st3{fill:#D30032;}
	.st4{fill:#FFA300;}
	.st5{fill:#00B794;}
</style>
<g>
	<polygon class="st0" points="532,217.4 492,217.4 492,175.2 378.6,175.2 378.6,92 418.6,92 418.6,135.2 532,135.2 	"></polygon>
	<path class="st1" d="M512,932L512,932c-152.1,0-276.6-124.5-276.6-276.6V384.3c0-99,81-179.9,179.9-179.9h193.3
		c99,0,179.9,81,179.9,179.9v271.1C788.6,807.5,664.1,932,512,932z"></path>
	<path class="st2" d="M512,456.2L512,456.2c-26,0-47.3-21.3-47.3-47.3v-72.7c0-26,21.3-47.3,47.3-47.3h0c26,0,47.3,21.3,47.3,47.3
		V409C559.3,435,538,456.2,512,456.2z"></path>
	<path class="st2" d="M512,848.5c-35,0-69.3-9.3-99.2-27c-29.1-17.1-53.3-41.6-70.2-70.8c-5.5-9.6-2.3-21.8,7.3-27.3
		c9.6-5.5,21.8-2.3,27.3,7.3c13.4,23.2,32.8,42.7,55.9,56.4c23.8,14,51.1,21.5,78.9,21.5c27.8,0,55.1-7.4,78.9-21.5
		c23.1-13.6,42.5-33.1,55.9-56.4c5.5-9.6,17.8-12.8,27.3-7.3c9.6,5.5,12.8,17.8,7.3,27.3c-16.9,29.2-41.2,53.7-70.2,70.8
		C581.3,839.1,547,848.5,512,848.5z"></path>
</g>
<g>
	<polygon class="st3" points="542,204.3 522,204.3 522,145.2 408.6,145.2 408.6,102 388.6,102 388.6,165.2 502,165.2 502,204.3 
		482,204.3 482,185.2 368.6,185.2 368.6,82 428.6,82 428.6,125.2 542,125.2 	"></polygon>
	<path class="st4" d="M512,942c-76.2,0-148.1-29.9-202.4-84.2c-54.3-54.3-84.2-126.2-84.2-202.4V384.3c0-50.5,19.8-98.2,55.8-134.2
		s83.6-55.8,134.2-55.8h193.3c50.5,0,98.2,19.8,134.2,55.8s55.8,83.6,55.8,134.2v271.1c0,76.2-29.9,148.1-84.2,202.4
		S588.2,942,512,942z M415.4,214.3c-45.2,0-87.8,17.7-120,49.9s-49.9,74.8-49.9,120v271.1c0,70.9,27.8,137.8,78.3,188.3
		C374.2,894.2,441.1,922,512,922h0c70.9,0,137.8-27.8,188.3-78.3s78.3-117.4,78.3-188.3V384.3c0-45.2-17.7-87.8-49.9-120
		c-32.2-32.2-74.8-49.9-120-49.9H415.4z"></path>
	<path class="st5" d="M512,466.2c-31.6,0-57.3-25.7-57.3-57.3v-72.7c0-31.6,25.7-57.3,57.3-57.3c31.6,0,57.3,25.7,57.3,57.3V409
		C569.3,440.5,543.6,466.2,512,466.2z M512,298.9c-20.6,0-37.3,16.7-37.3,37.3V409c0,20.6,16.7,37.3,37.3,37.3
		c20.6,0,37.3-16.7,37.3-37.3v-72.7C549.3,315.7,532.6,298.9,512,298.9z"></path>
	<path class="st5" d="M512,858.5c-36.7,0-72.8-9.8-104.3-28.4c-30.5-18-56.1-43.7-73.8-74.4c-8.3-14.3-3.4-32.7,10.9-41
		c14.3-8.3,32.7-3.4,41,10.9c12.6,21.8,30.7,40,52.3,52.8c22.3,13.1,47.8,20.1,73.8,20.1c26,0,51.6-6.9,73.8-20.1
		c21.7-12.8,39.8-31,52.3-52.8c4-6.9,10.5-11.9,18.2-14c7.7-2.1,15.8-1,22.8,3c14.3,8.3,19.2,26.7,10.9,41
		c-17.8,30.7-43.3,56.4-73.8,74.4C584.8,848.6,548.7,858.5,512,858.5z M359.8,730.6c-1.7,0-3.4,0.4-5,1.3c-4.8,2.8-6.4,8.9-3.6,13.7
		c16,27.7,39.1,51,66.7,67.2c28.4,16.8,61,25.6,94.1,25.6c33.2,0,65.7-8.9,94.1-25.6c27.6-16.3,50.6-39.5,66.7-67.2
		c2.8-4.8,1.1-10.9-3.6-13.7c-2.3-1.3-5-1.7-7.6-1c-2.6,0.7-4.7,2.3-6.1,4.7c-14.3,24.7-34.9,45.5-59.5,60
		c-25.3,14.9-54.4,22.8-84,22.8c-29.6,0-58.6-7.9-84-22.8c-24.6-14.5-45.2-35.3-59.5-60C366.7,732.4,363.3,730.6,359.8,730.6z"></path>
</g>
</svg>