<svg version="1.1" id="Capa_1" xmlns="http://www.w3.org/2000/svg" xmlns:xlink="http://www.w3.org/1999/xlink" x="0px" y="0px" viewBox="0 0 1024 1024" style="enable-background:new 0 0 1024 1024;" xml:space="preserve">
<style type="text/css">
	.st0{fill:#978CDB;}
	.st1{fill:#FFFFFF;}
	.st2{fill:#50E6CC;}
	.st3{fill:#313144;}
	.st4{fill:#F7C800;}
	.st5{fill:#15B7FF;}
	.st6{fill:#4D4DCE;}
	.st7{fill:#00B794;}
	.st8{fill:#0074FF;}
	.st9{fill:#FFA300;}
</style>
<g>
	<g>
		<path class="st0" d="M641.9,842.3V872c0,3.8-3,6.6-6.6,6.6H388.7c-3.8,0-6.6-3-6.6-6.6v-29.7c0-7.8,6.3-14.1,14.1-14.1h49.9V654
			h132v174.1h49.8C635.7,828.2,641.9,834.6,641.9,842.3z"></path>
	</g>
	<path class="st0" d="M932,196.6v505.9c0,28.1-23.1,51.2-51.2,51.2H143.2c-28.1,0-51.2-23.1-51.2-51.2V196.6
		c0-28.1,23.1-51.2,51.2-51.2h737.6C908.9,145.3,932,168.4,932,196.6z"></path>
	<rect x="152.6" y="206" class="st1" width="718.8" height="487.2"></rect>
	<g>
		<path class="st2" d="M798.4,601.8c0,6.2-2.5,11.8-6.6,15.9c-4.1,4.1-9.7,6.6-15.9,6.6H281.1c-12.5,0-22.5-10.2-22.5-22.5
			c0-6.2,2.5-11.8,6.6-15.9c4.1-4.1,9.7-6.6,15.9-6.6h494.6C788.2,579.3,798.4,589.4,798.4,601.8z"></path>
	</g>
	<g>
		<g>
			<g>
				<path class="st3" d="M241,522.5"></path>
			</g>
		</g>
	</g>
	<g>
		<g>
			<path class="st4" d="M458.7,520.2c6.1-6.1,9.4-14.3,9.4-23.1s-3.4-17-9.6-23.2l-69.1-69.2c-1.7-1.7-3.9-2.5-6.2-2.4
				c-2.3,0.1-4.5,1-6.1,2.8l-10.5,11.4l-93.1-93.1c4-8.9,2.4-19.8-4.9-27L253,280.6c-1.5-1.5-3.8-2.4-6-2.4s-4.4,0.9-6,2.4
				l-22.2,22.2c-3.3,3.3-3.3,8.6,0,11.9l15.7,15.7c4.7,4.7,10.9,7.1,17.1,7.1c3.4,0,6.8-0.8,9.9-2.2l93.6,93.6l-10.9,11.8
				c-3.1,3.3-3,8.5,0.2,11.7l67.9,67.9c6.4,6.4,14.8,9.6,23.2,9.6C443.9,529.8,452.3,526.6,458.7,520.2 M246.5,318.4l-9.7-9.7
				l10.2-10.2l9.7,9.7c2.8,2.9,2.8,7.4,0,10.2C253.9,321.2,249.4,321.2,246.5,318.4z"></path>
		</g>
		<path class="st5" d="M457.7,311.8c-0.8-2.5-2.5-4.3-4.7-5.2c-3-1.2-6.5-0.8-9,1.8l-16.1,16.1c-5.8,5.8-15.3,6.6-21.7,1.3
			c-7.4-6.1-7.8-17.1-1.2-23.7l16.4-16.4c2.5-2.5,3-6.1,1.8-9c-0.9-2.1-2.6-4-5.1-4.6c-21.4-6.6-45.8-1.1-62.2,16.6
			c-16.6,17.9-20.3,43.5-11.3,64.8c0,0.1,0.1,0.2,0.1,0.3l0,0L219.8,469.3c-12.1,11-12.6,30-1,41.6c11.3,11.3,29.5,11.1,40.6,0
			c0.3-0.3,0.7-0.7,1-1l115.5-124.7l0,0c0.1,0.1,0.3,0.1,0.4,0.2c22,9.3,48.3,5,66.3-12.9C459.1,356,464.1,332.6,457.7,311.8z
			 M250.2,496.4c-4.6,4.6-12.2,4.6-17,0c-4.6-4.6-4.6-12.2,0-16.9c4.6-4.6,12.2-4.6,17,0C254.9,484.2,254.9,491.7,250.2,496.4z"></path>
	</g>
	<path class="st2" d="M798.4,517.2c0,6.3-2.5,11.8-6.6,15.9c-4.1,4.1-9.7,6.5-15.9,6.5H565.7c-12.5,0-22.5-10.2-22.5-22.5
		c0-6.3,2.5-11.8,6.6-15.9s9.7-6.5,15.9-6.5h210C788.2,494.6,798.4,504.7,798.4,517.2z"></path>
	<path class="st2" d="M785.1,452.5H648.4c-7.3,0-13.2-6-13.2-13.2V282.6c0-7.3,6-13.2,13.2-13.2H785c7.3,0,13.2,6,13.2,13.2v156.7
		C798.4,446.6,792.4,452.5,785.1,452.5z"></path>
</g>
<g>
	<path class="st6" d="M920.4,156.8c-10.6-10.6-24.7-16.4-39.6-16.4H143.2c-31,0-56.2,25.2-56.2,56.2v505.9c0,31,25.2,56.2,56.2,56.2
		h297.9v64.5h-44.9c-10.5,0-19.1,8.6-19.1,19.1V872c0,6.5,5.1,11.6,11.6,11.6h246.5c6.4,0,11.6-5.2,11.6-11.6v-29.7
		c0-10.5-8.5-19.1-19-19.1H583v-64.5h297.7c31,0,56.2-25.2,56.2-56.2V196.6C937,181.6,931.1,167.4,920.4,156.8z M627.9,833.2
		c5,0,9,4.1,9,9.1V872c0,1.1-0.8,1.6-1.6,1.6H388.7c-1.1,0-1.6-0.8-1.6-1.6v-29.7c0-5,4.1-9.1,9.1-9.1h54.9v-74.5h122v74.5H627.9z
		 M927,702.5c0,25.5-20.7,46.2-46.2,46.2H143.2c-25.5,0-46.2-20.7-46.2-46.2V196.6c0-25.5,20.7-46.2,46.2-46.2h737.6
		c0.1,0,0.1,0,0.2,0c12.2,0,23.6,4.8,32.4,13.4c8.8,8.8,13.6,20.4,13.6,32.8V702.5z"></path>
	<path class="st6" d="M147.6,698.2h728.8V201H147.6V698.2z M157.6,211h708.8v477.2H157.6V211z"></path>
	<path class="st7" d="M775.7,574.3H281.1c-7.3,0-14.2,2.9-19.4,8.1c-5.2,5.2-8.1,12.1-8.1,19.4c0,15.2,12.3,27.5,27.5,27.5h494.7
		c7.3,0,14.2-2.9,19.4-8.1c5.2-5.2,8.1-12.1,8.1-19.4C803.4,586.7,791,574.3,775.7,574.3z M788.2,614.2c-3.3,3.3-7.7,5.2-12.4,5.2
		H281.1c-9.7,0-17.5-7.9-17.5-17.5c0-4.6,1.8-9,5.2-12.4c3.3-3.3,7.7-5.2,12.4-5.2h494.6c9.7,0,17.6,7.9,17.6,17.5
		C793.4,606.5,791.5,610.9,788.2,614.2z"></path>
	<path class="st8" d="M229.7,476c-3.2,3.2-4.9,7.4-4.9,12s1.8,8.8,5,12c3.3,3.3,7.7,4.9,12,4.9c4.4,0,8.7-1.6,12-4.9l0,0
		c6.5-6.7,6.5-17.4-0.1-24C247,469.4,236.3,469.5,229.7,476z M246.7,492.9c-2.7,2.7-7.2,2.7-9.9,0s-2.7-7.2,0-9.8
		c1.3-1.3,3.1-2,4.9-2c1.8,0,3.6,0.7,5,2C249.4,485.8,249.4,490.1,246.7,492.9z"></path>
	<path class="st7" d="M775.7,489.7h-210c-7.4,0-14.3,2.8-19.4,8c-5.2,5.2-8.1,12.1-8.1,19.4c0,15.2,12.3,27.5,27.5,27.5h210.1
		c7.4,0,14.3-2.8,19.4-8c5.2-5.2,8.1-12.1,8.1-19.4c0-7.4-2.9-14.4-8.2-19.6C790,492.4,783.1,489.6,775.7,489.7z M788.2,529.5
		c-3.3,3.3-7.6,5-12.4,5H565.7c-9.7,0-17.5-7.9-17.5-17.5c0-5.9,2.8-10,5.2-12.4c3.3-3.3,7.6-5,12.4-5h210c0.1,0,0.1,0,0.2,0
		c4.6,0,8.9,1.8,12.2,5c3.4,3.3,5.2,7.8,5.2,12.5C793.4,523.1,790.6,527.2,788.2,529.5z"></path>
	<path class="st7" d="M648.4,457.5h136.7c4.9,0,9.5-1.9,12.9-5.4s5.3-8,5.2-12.8V282.6c0-10.1-8.2-18.2-18.2-18.2H648.4
		c-10.1,0-18.2,8.2-18.2,18.2v156.7C630.2,449.3,638.3,457.5,648.4,457.5z M640.2,282.6c0-4.5,3.7-8.2,8.2-8.2H785
		c4.5,0,8.2,3.7,8.2,8.2v156.8c0,2.1-0.8,4.2-2.3,5.7c-1.6,1.6-3.6,2.4-5.8,2.4H648.4c-4.5,0-8.2-3.7-8.2-8.2V282.6z"></path>
	<path class="st9" d="M246.9,291.5l-17.2,17.2L243,322l0.1,0.1c2.4,2.3,5.5,3.4,8.6,3.4s6.2-1.2,8.6-3.5c4.7-4.7,4.7-12.4,0-17.2
		L246.9,291.5z M253.1,314.9c-0.8,0.8-2.2,0.8-3.1,0l-6.1-6.1l3.1-3.1l6.1,6.1C253.9,312.7,253.9,314.1,253.1,314.9z"></path>
	<path class="st9" d="M323.6,366.3L279.3,322c3.2-10.4,0.6-21.6-7.1-29.3L256.5,277c-2.5-2.5-5.9-3.9-9.5-3.9s-7,1.4-9.5,3.9
		l-22.2,22.2c-5.2,5.2-5.2,13.8,0,19l15.7,15.7c5.5,5.5,12.8,8.5,20.6,8.5c2.9,0,5.9-0.5,8.7-1.4l43.5,43.5l7.3-6.8l-48.5-48.5
		l-3.2,1.5c-2.5,1.1-5.2,1.7-7.8,1.7c-5.1,0-10-2-13.6-5.6l-15.7-15.7c-1.4-1.4-1.4-3.5,0-4.8l22.2-22.2c0.6-0.6,1.5-1,2.4-1
		s1.8,0.4,2.4,1l15.7,15.7c5.6,5.6,7.1,14.1,3.8,21.5l-1.4,3.1l48.7,48.7L323.6,366.3z"></path>
	<path class="st9" d="M345.1,425.8l3.1,3.1l-7.7,8.3c-4.9,5.3-4.8,13.5,0.4,18.6l67.9,67.9c7.1,7.1,16.6,11.1,26.7,11.1
		s19.6-3.9,26.7-11.1l3.3-3.8c4.9-6.5,7.5-14.4,7.5-22.8c0-10.1-3.9-19.6-11.1-26.7l-69.1-69.2c-2.7-2.7-6.2-4.1-10-3.9
		s-7.2,1.7-9.6,4.4l-6.9,7.5l-3.1-3.1l-6.8,7.3l10.2,10.2l14-15.2l0.1-0.1c0.7-0.8,1.8-1,2.5-1c0.9,0,1.7,0.3,2.4,1l69.1,69.2
		c5.2,5.2,8.1,12.2,8.1,19.6c0,5.7-1.6,11.2-4.7,15.7l-2.1-2.1l-7.1,7.1l2.1,2.1c-4.6,3.2-10.1,4.9-15.8,4.9
		c-7.4,0-14.4-2.9-19.6-8.1L348,448.8c-1.3-1.3-1.3-3.4-0.1-4.8l14.2-15.3l-10.2-10.2L345.1,425.8z"></path>
	<path class="st8" d="M303.9,384.6l-87.5,81c-6.9,6.3-10.8,14.8-11,24.2c-0.2,9.3,3.3,18.1,9.9,24.7c6.4,6.4,14.8,9.9,23.8,9.9
		c0,0,0,0,0.1,0c9,0,17.4-3.5,23.8-9.9l1-1l88-95l4.7-5l6.8-7.3l13.9-14.9c23.9,8.8,50.7,3.1,69-15.1c17.2-17.3,23.4-42.5,16.2-65.7
		c-1.2-3.9-3.9-6.9-7.6-8.3c-5.1-2.1-10.6-1-14.5,2.9L424.3,321c-4.1,4.1-10.7,4.6-15,1c-2.5-2-3.9-4.9-4-8c-0.2-3.1,1-6.1,3.2-8.3
		l16.4-16.4c3.8-3.8,4.9-9.4,2.8-14.5c-1.6-3.7-4.6-6.5-8.3-7.5c-24.2-7.5-50-0.6-67.3,18c-16.8,18.1-21.8,44.1-13.4,67.1l-15.1,14
		 M316.3,373.1l-5,4.7 M255.9,507.4c-9.2,9.2-24.3,9.2-33.5,0c-4.6-4.6-7.1-10.8-6.9-17.4s2.9-12.6,7.8-17l126.4-117.1v-2.2
		c0-0.4,0-0.8-0.1-1.1v-0.3l-0.4-0.9c-8.5-20.1-4.5-43.4,10.3-59.4c14.6-15.7,36.5-21.5,57.1-15.2h0.2c1.1,0.3,1.6,1.4,1.8,1.7
		c0.2,0.5,0.7,2.2-0.7,3.6l-16.4,16.4c-4.2,4.2-6.4,10-6.1,15.9s3.1,11.5,7.7,15.2c8.2,6.8,20.7,6.1,28.5-1.6l16.1-16.1
		c1.4-1.4,3.1-0.9,3.7-0.7c0.9,0.4,1.5,1,1.8,2l0,0c6.1,19.7,0.8,41-13.8,55.7c-16,15.9-39.6,20.6-60.3,12.1l-3-3l-119,128.4
		L255.9,507.4z"></path>
</g>
</svg>