<svg version="1.1" id="Capa_1" xmlns="http://www.w3.org/2000/svg" xmlns:xlink="http://www.w3.org/1999/xlink" x="0px" y="0px" viewBox="0 0 1024 1024" style="enable-background:new 0 0 1024 1024;" xml:space="preserve">
<style type="text/css">
	.st0{fill:#FFA300;}
	.st1{fill:#FDF17F;}
	.st2{fill:#FEF8E6;}
	.st3{fill:#F77490;}
	.st4{fill:#00A4FF;}
	.st5{fill:#FF7900;}
	.st6{fill:#F7D59F;}
	.st7{fill:#D30032;}
	.st8{fill:#074CE5;}
</style>
<g>
	<g>
		<path class="st0" d="M902.4,838.5H121.5C99.8,838.5,82,821,82,799V225c0-21.7,17.6-39.5,39.5-39.5h781c21.7,0,39.5,17.6,39.5,39.5
			v574.2C941.9,821,924.2,838.5,902.4,838.5z"></path>
		<path class="st1" d="M441.4,392.4V185.6h141.1v206.8c0,10.9-8.9,19.8-19.8,19.8H461C450.1,412.1,441.4,403.3,441.4,392.4z"></path>
		<g>
			<path class="st2" d="M389.7,776.6c-21.7,0-39.5-17.6-39.5-39.5V512.5c0-21.7,17.6-39.5,39.5-39.5h244.5
				c21.7,0,39.5,17.6,39.5,39.5V737c0,21.7-17.6,39.5-39.5,39.5L389.7,776.6L389.7,776.6z"></path>
			<path class="st3" d="M448.9,558.2h-41.1c-9.1,0-16.3-7.4-16.3-16.3c0-9.1,7.4-16.3,16.3-16.3h41.1c9.1,0,16.3,7.4,16.3,16.3
				C465.3,550.8,458,558.2,448.9,558.2z"></path>
			<path class="st4" d="M616.3,643.5H407.9c-9.1,0-16.3-7.4-16.3-16.3c0-9.1,7.4-16.3,16.3-16.3h208.4c9.1,0,16.3,7.4,16.3,16.3
				C632.8,636.1,625.4,643.5,616.3,643.5z"></path>
			<path class="st4" d="M616.3,709.1H407.9c-9.1,0-16.3-7.4-16.3-16.3c0-9.1,7.4-16.3,16.3-16.3h208.4c9.1,0,16.3,7.4,16.3,16.3
				C632.8,701.8,625.4,709.1,616.3,709.1z"></path>
		</g>
	</g>
</g>
<g>
	<g>
		<path class="st5" d="M902.4,848.5H121.5C94.2,848.5,72,826.3,72,799V225c0-27.3,22.2-49.5,49.5-49.5h781
			c27.3,0,49.5,22.2,49.5,49.5v574.2C951.9,826.4,929.6,848.5,902.4,848.5z M121.5,195.5c-16.3,0-29.5,13.2-29.5,29.5v574
			c0,16.3,13.2,29.5,29.5,29.5h780.9c16.2,0,29.5-13.2,29.6-29.3V225c0-16.3-13.2-29.5-29.5-29.5H121.5z"></path>
		<path class="st5" d="M562.7,422.2H461c-16.4-0.1-29.6-13.5-29.6-29.8V175.6h161.1v216.8C592.5,408.8,579.1,422.2,562.7,422.2z
			 M451.4,195.6v196.8c0,5.4,4.3,9.8,9.7,9.8l101.6,0c5.4,0,9.8-4.4,9.8-9.8V195.6H451.4z"></path>
		<g>
			<path class="st6" d="M389.7,786.6L389.7,786.6c-27.3,0-49.5-22.2-49.5-49.5V512.5c0-27.3,22.2-49.5,49.5-49.5h244.5
				c27.3,0,49.5,22.2,49.5,49.5V737c0,27.3-22.2,49.5-49.5,49.5L389.7,786.6z M389.7,483c-16.3,0-29.5,13.2-29.5,29.5v224.6
				c0,16.3,13.2,29.5,29.5,29.5l244.5-0.1c16.3,0,29.5-13.2,29.5-29.5V512.5c0-16.3-13.2-29.5-29.5-29.5H389.7z"></path>
			<path class="st7" d="M448.9,568.2h-41.1c-14.5,0-26.3-11.8-26.3-26.3s11.8-26.3,26.3-26.3h41.1c14.5,0,26.3,11.8,26.3,26.2
				c0.1,7-2.6,13.5-7.5,18.5C462.7,565.4,456,568.2,448.9,568.2z M407.8,535.6c-3.5,0-6.3,2.8-6.3,6.3c0,3.5,2.8,6.3,6.3,6.3h41.1
				c1.7,0,3.3-0.7,4.5-1.9c1.2-1.2,1.8-2.7,1.8-4.3l0-0.1c0-3.5-2.8-6.3-6.3-6.3H407.8z"></path>
			<path class="st8" d="M616.3,653.5H407.9c-14.5,0-26.3-11.8-26.3-26.3s11.8-26.3,26.3-26.3h208.4c14.5,0,26.2,11.7,26.3,26.2
				c0.1,6.9-2.5,13.5-7.4,18.5C630.3,650.6,623.4,653.5,616.3,653.5z M407.9,620.9c-3.5,0-6.3,2.8-6.3,6.3s2.8,6.3,6.3,6.3h208.4
				c1.8,0,3.4-0.7,4.6-1.9c0.6-0.7,1.7-2.1,1.7-4.1l0-0.2c0-3.5-2.8-6.3-6.3-6.3H407.9z"></path>
			<path class="st8" d="M616.3,719.1H407.9c-14.5,0-26.3-11.8-26.3-26.3s11.8-26.3,26.3-26.3h208.4c14.5,0,26.2,11.7,26.3,26.2
				c0.1,6.9-2.5,13.5-7.4,18.5C630.2,716.3,623.5,719.1,616.3,719.1z M407.9,686.5c-3.5,0-6.3,2.8-6.3,6.3s2.8,6.3,6.3,6.3h208.4
				c1.8,0,3.4-0.7,4.6-1.9c0.6-0.7,1.7-2.1,1.7-4.2l0-0.2c0-3.5-2.8-6.3-6.3-6.3H407.9z"></path>
		</g>
	</g>
</g>
</svg>