<svg version="1.1" id="Capa_1" xmlns="http://www.w3.org/2000/svg" xmlns:xlink="http://www.w3.org/1999/xlink" x="0px" y="0px" viewBox="0 0 1024 1024" style="enable-background:new 0 0 1024 1024;" xml:space="preserve">
<style type="text/css">
	.st0{fill:#50E6CC;}
	.st1{fill:#8ADCFF;}
	.st2{fill:#15B7FF;}
	.st3{fill:#FFA300;}
	.st4{fill:#FEF8E6;}
	.st5{fill:#00B794;}
	.st6{fill:#F77490;}
	.st7{fill:#007AFF;}
	.st8{fill:#F7D59F;}
	.st9{fill:#007982;}
	.st10{fill:#FDF17F;}
	.st11{fill:#D30032;}
</style>
<g>
	<rect x="814.5" y="679.4" class="st0" width="44.2" height="159.4"></rect>
	<rect x="478.7" y="345.6" class="st1" width="220.7" height="458.8"></rect>
	<g>
		<rect x="142.7" y="145.9" class="st2" width="335.6" height="658.5"></rect>
		<g>
			<rect x="199.2" y="249.7" class="st3" width="78.5" height="78.5"></rect>
			<rect x="343.5" y="249.7" class="st3" width="78.5" height="78.5"></rect>
			<rect x="199.2" y="416.3" class="st3" width="78.5" height="78.5"></rect>
			<rect x="343.5" y="416.3" class="st3" width="78.5" height="78.5"></rect>
		</g>
	</g>
	<rect x="541.9" y="418.3" class="st4" width="87.2" height="87.2"></rect>
	<rect x="541.9" y="586.1" class="st4" width="87.2" height="87.2"></rect>
	<rect x="250.6" y="578.9" class="st3" width="120" height="225.5"></rect>
	<circle class="st5" cx="836.5" cy="619.1" r="95.5"></circle>
	<rect x="92" y="804.5" class="st6" width="828.2" height="49.7"></rect>
</g>
<g>
	<path class="st5" d="M814.5,814.5c-5.5,0-10-4.5-10-10V712c0-5.5,4.5-10,10-10s10,4.5,10,10v92.4C824.5,810,820,814.5,814.5,814.5z
		"></path>
	<path class="st5" d="M858.6,814.5c-5.5,0-10-4.5-10-10V712c0-5.5,4.5-10,10-10s10,4.5,10,10v92.4
		C868.6,810,864.1,814.5,858.6,814.5z"></path>
	<path class="st2" d="M699.4,814.5H478.7c-5.5,0-10-4.5-10-10V345.6c0-5.5,4.5-10,10-10h220.7c5.5,0,10,4.5,10,10v458.8
		C709.4,810,705,814.5,699.4,814.5z M488.7,794.5h200.7V355.6H488.7V794.5z"></path>
	<g>
		<path class="st7" d="M478.4,814.5H142.7c-5.5,0-10-4.5-10-10V145.9c0-5.5,4.5-10,10-10h335.6c5.5,0,10,4.5,10,10v658.5
			C488.4,810,483.9,814.5,478.4,814.5z M152.7,794.5h315.6V155.9H152.7V794.5z"></path>
	</g>
	<g>
		<path class="st8" d="M629,515.5h-87.2c-5.5,0-10-4.5-10-10v-87.2c0-5.5,4.5-10,10-10H629c5.5,0,10,4.5,10,10v87.2
			C639,511,634.6,515.5,629,515.5z M551.9,495.5H619v-67.2h-67.2V495.5z"></path>
		<path class="st8" d="M629,683.3h-87.2c-5.5,0-10-4.5-10-10v-87.2c0-5.5,4.5-10,10-10H629c5.5,0,10,4.5,10,10v87.2
			C639,678.8,634.6,683.3,629,683.3z M551.9,663.3H619v-67.2h-67.2V663.3z"></path>
	</g>
	<path class="st9" d="M836.5,724.6c-58.2,0-105.5-47.3-105.5-105.5c0-58.2,47.3-105.5,105.5-105.5c58.2,0,105.5,47.3,105.5,105.5
		C942,677.3,894.7,724.6,836.5,724.6z M836.5,533.7c-47.1,0-85.5,38.3-85.5,85.5s38.3,85.5,85.5,85.5s85.5-38.3,85.5-85.5
		S883.7,533.7,836.5,533.7z"></path>
	<g>
		<path class="st10" d="M370.6,814.5h-120c-5.5,0-10-4.5-10-10V578.9c0-5.5,4.5-10,10-10h120c5.5,0,10,4.5,10,10v225.5
			C380.6,810,376.1,814.5,370.6,814.5z M260.6,794.5h100V588.9h-100V794.5z"></path>
		<g>
			<path class="st10" d="M277.7,338.1h-78.5c-5.5,0-10-4.5-10-10v-78.5c0-5.5,4.5-10,10-10h78.5c5.5,0,10,4.5,10,10v78.5
				C287.7,333.7,283.2,338.1,277.7,338.1z M209.2,318.1h58.5v-58.5h-58.5V318.1z"></path>
			<path class="st10" d="M421.9,338.1h-78.5c-5.5,0-10-4.5-10-10v-78.5c0-5.5,4.5-10,10-10h78.5c5.5,0,10,4.5,10,10v78.5
				C431.9,333.7,427.5,338.1,421.9,338.1z M353.5,318.1h58.5v-58.5h-58.5V318.1z"></path>
			<path class="st10" d="M277.7,504.8h-78.5c-5.5,0-10-4.5-10-10v-78.5c0-5.5,4.5-10,10-10h78.5c5.5,0,10,4.5,10,10v78.5
				C287.7,500.3,283.2,504.8,277.7,504.8z M209.2,484.8h58.5v-58.5h-58.5V484.8z"></path>
			<path class="st10" d="M421.9,504.8h-78.5c-5.5,0-10-4.5-10-10v-78.5c0-5.5,4.5-10,10-10h78.5c5.5,0,10,4.5,10,10v78.5
				C431.9,500.3,427.5,504.8,421.9,504.8z M353.5,484.8h58.5v-58.5h-58.5V484.8z"></path>
		</g>
	</g>
	<path class="st11" d="M920.2,864.2H92c-5.5,0-10-4.5-10-10v-49.7c0-5.5,4.5-10,10-10h828.2c5.5,0,10,4.5,10,10v49.7
		C930.2,859.7,925.7,864.2,920.2,864.2z M102,844.2h808.2v-29.7H102V844.2z"></path>
</g>
</svg>